<?xml version="1.0" standalone="no"?>
<!DOCTYPE svg PUBLIC "-//W3C//DTD SVG 20010904//EN"
 "http://www.w3.org/TR/2001/REC-SVG-20010904/DTD/svg10.dtd">
<svg version="1.0" xmlns="http://www.w3.org/2000/svg"
 width="400.000000pt" height="400.000000pt" viewBox="0 0 400.000000 400.000000"
 preserveAspectRatio="xMidYMid meet">
<metadata>
Created by potrace 1.13, written by Peter Selinger 2001-2015
</metadata>
<g transform="translate(0.000000,400.000000) scale(0.080000,-0.080000)"
fill="#000000" stroke="none">
<path d="M1910 4980 c-898 -5 -1134 -8 -1167 -19 -40 -12 -58 -31 -31 -31 6 0
9 -3 5 -6 -5 -6 75 -131 93 -144 3 -3 21 -27 40 -55 19 -27 36 -52 40 -55 16
-13 259 -290 285 -325 17 -22 32 -42 35 -45 10 -8 72 -170 102 -265 16 -49 31
-117 34 -150 5 -60 5 -60 -13 -35 -10 13 -57 74 -105 135 -71 89 -106 148
-188 310 -137 273 -373 635 -413 635 -29 0 -175 -72 -236 -116 -166 -121 -286
-290 -348 -491 -26 -86 -27 -95 -31 -399 l-3 -310 133 -102 c288 -219 399
-319 551 -495 63 -73 130 -157 149 -187 39 -61 120 -231 114 -237 -2 -2 -20
19 -41 47 -20 27 -44 56 -53 63 -18 13 -125 134 -207 232 -27 33 -52 62 -55
65 -3 3 -43 48 -90 100 -47 52 -92 101 -100 110 -21 21 -301 276 -356 324
l-44 38 3 -1403 3 -1404 23 -80 c45 -158 139 -314 254 -422 78 -73 208 -156
247 -157 15 -1 26 -4 24 -7 -3 -6 66 -39 81 -39 9 0 5 29 -5 35 -6 4 -7 -1 -3
-10 5 -15 3 -15 -15 -4 -11 7 -18 17 -16 21 3 4 -3 8 -13 9 -10 0 -13 3 -5 6
6 2 12 9 12 14 0 4 -7 6 -15 3 -8 -4 -15 -1 -15 4 0 6 -12 12 -26 14 -15 2
-32 12 -38 23 -16 29 -33 45 -47 45 -10 0 -99 87 -99 97 0 2 -9 13 -20 25 -10
12 -16 26 -13 32 3 6 3 8 -1 4 -10 -8 -38 20 -53 55 -7 15 -17 27 -23 27 -5 0
-10 8 -10 18 0 9 -14 44 -30 77 -16 33 -30 70 -30 83 0 12 -4 22 -9 22 -8 0
-14 30 -33 170 -22 168 -10 711 16 702 15 -6 23 17 17 51 -4 31 -5 31 -12 7
-6 -23 -7 -23 -8 -3 -1 12 4 25 9 28 6 4 8 16 4 27 -4 13 -2 18 4 14 7 -4 14
8 18 29 3 19 9 35 13 35 8 0 28 91 37 172 4 32 10 56 13 53 4 -2 8 4 9 13 4
39 9 54 24 71 8 10 18 30 22 44 7 31 43 67 66 67 9 0 20 3 24 7 9 10 86 12 86
3 0 -4 9 -10 21 -13 18 -5 20 -2 15 18 -4 17 -1 27 11 34 15 9 12 10 -17 11
-23 0 -30 -3 -22 -9 19 -12 -4 -20 -46 -16 -18 1 -37 -4 -43 -11 -8 -10 -16
-11 -23 -4 -7 5 -27 10 -44 12 -18 1 -32 6 -32 11 0 4 -5 5 -12 1 -7 -4 -8 -3
-4 4 4 7 1 12 -8 12 -14 0 -15 27 -2 48 3 5 6 28 7 53 1 24 8 71 15 104 20
100 30 113 57 74 9 -13 27 -21 46 -21 17 -1 29 -3 26 -6 -6 -7 51 -32 72 -32
8 0 13 6 10 13 -2 6 -10 11 -16 10 -6 -2 -11 1 -11 7 0 5 -6 7 -14 4 -8 -3
-17 0 -22 7 -5 9 -2 10 9 6 10 -3 17 -2 17 4 0 10 21 -4 48 -34 9 -11 26 -23
37 -28 16 -8 15 -8 -8 -4 -24 5 -29 2 -38 -24 -6 -16 -17 -32 -25 -35 -9 -3
-14 -14 -13 -23 4 -41 0 -43 -70 -43 -97 0 -99 -17 -4 -23 43 -3 87 -6 98 -7
32 -5 83 11 89 27 9 23 -2 33 -40 33 -27 0 -34 4 -34 20 0 29 41 26 79 -5 28
-24 30 -24 40 -8 6 10 11 13 11 6 0 -8 7 -10 18 -6 16 7 16 6 0 -11 -20 -19
-24 -31 -8 -21 6 3 10 -5 10 -18 0 -14 7 -27 15 -31 8 -3 15 -12 15 -21 0 -10
9 -15 28 -14 16 1 20 3 9 6 -9 2 -17 10 -17 18 0 7 -7 15 -15 19 -13 5 -22 36
-10 36 14 0 71 -48 68 -57 -2 -6 1 -15 8 -19 8 -4 9 -3 5 4 -19 32 17 6 65
-46 121 -131 116 -122 111 -209 -4 -69 -1 -87 25 -154 47 -119 121 -217 234
-309 226 -183 414 -274 697 -337 45 -10 82 -22 82 -27 0 -5 -33 -38 -72 -75
-220 -200 -328 -327 -335 -394 -4 -37 -13 -50 -53 -85 l-48 -41 -27 54 c-27
56 -74 112 -110 133 -12 7 -16 15 -10 19 6 5 23 27 38 50 36 56 35 98 -5 175
-26 49 -41 65 -70 77 -37 16 -45 28 -62 101 -3 14 -15 35 -26 48 -25 30 -203
122 -236 122 -13 0 -47 9 -76 20 -119 45 -233 15 -276 -73 -16 -33 -32 -51
-56 -61 -53 -22 -79 -69 -87 -154 -6 -61 -14 -84 -46 -135 l-38 -62 -2 -125
c-1 -69 -5 -154 -8 -190 -7 -63 -6 -67 31 -130 50 -86 60 -97 95 -104 16 -3
32 -14 36 -23 10 -28 79 -119 106 -140 13 -10 32 -33 41 -50 18 -36 52 -63 79
-63 17 0 17 2 -3 31 -12 16 -20 32 -17 35 2 3 24 -1 48 -7 66 -19 158 -17 198
4 19 9 38 17 43 17 31 0 158 117 202 185 48 75 66 152 66 288 0 64 4 117 8
117 20 0 87 -78 111 -129 21 -45 26 -71 26 -136 0 -44 -4 -105 -8 -135 -7 -48
-6 -53 6 -40 22 23 37 100 37 185 0 42 4 74 9 71 5 -3 28 10 52 29 24 19 47
35 50 35 3 0 9 -79 13 -176 7 -172 14 -213 54 -324 24 -65 26 -65 180 -55
l102 7 0 38 c0 22 -5 40 -12 43 -7 2 -10 8 -6 12 10 10 58 -41 58 -61 0 -7 5
-14 11 -14 5 0 8 -4 5 -8 -5 -8 415 -22 670 -22 l121 0 -23 67 c-15 44 -24 92
-24 134 0 63 18 131 39 143 11 7 21 -17 21 -51 0 -34 34 -27 38 9 2 14 12 34
23 44 22 20 24 11 7 -37 -16 -49 -46 -83 -76 -89 -15 -3 -28 -13 -30 -23 -5
-23 49 -137 64 -137 5 0 23 13 39 30 15 16 32 27 37 24 12 -8 -48 -81 -73 -89
-10 -4 -17 -11 -14 -16 8 -12 72 -11 97 2 14 8 23 8 31 0 22 -22 63 -12 96 24
17 19 41 35 52 35 30 0 34 26 14 89 -29 94 -44 101 -99 44 -53 -55 -56 -31 -3
26 45 48 47 52 47 111 0 55 -2 61 -26 72 -24 11 -29 9 -62 -26 -29 -33 -34
-35 -28 -15 23 74 1 86 -68 33 -31 -23 -51 -33 -57 -27 -17 17 54 70 102 77
122 17 207 -54 249 -207 12 -46 9 -173 -5 -223 -6 -20 -6 -20 502 -22 573 -2
605 1 767 67 289 118 492 367 552 677 11 58 14 169 14 475 l0 400 -67 -54
c-38 -30 -88 -68 -113 -85 -25 -16 -88 -65 -140 -107 -171 -138 -484 -327
-605 -365 -68 -21 -154 -71 -188 -109 -18 -20 -41 -62 -50 -92 -20 -63 -44
-83 -184 -153 -69 -34 -142 -49 -128 -25 4 6 13 8 21 5 8 -3 14 -1 14 4 0 9
-14 14 -31 12 -4 -1 -5 7 -2 17 3 10 0 22 -6 25 -14 9 -15 83 -1 88 5 2 10 17
12 35 1 22 10 36 30 48 35 20 36 38 3 55 -14 7 -25 18 -24 24 3 28 -2 44 -14
42 -13 -2 -102 -78 -200 -169 -32 -30 -42 -35 -54 -25 -11 9 -16 9 -24 -3 -7
-11 -10 -9 -15 9 -4 13 -12 21 -18 19 -15 -5 -39 20 -31 33 4 6 2 16 -4 23 -5
7 -9 22 -7 32 2 11 0 32 -4 46 -11 37 13 141 39 174 11 15 21 34 21 42 0 11
32 65 50 83 3 3 11 17 19 33 8 15 18 27 23 27 11 0 10 78 -2 82 -5 2 -11 19
-12 38 -3 38 -13 52 -41 63 -9 3 -16 12 -15 19 5 21 -58 9 -124 -24 -86 -42
-92 -37 -85 70 9 110 39 236 63 263 31 35 238 128 252 114 4 -4 -62 -91 -85
-110 -16 -14 -53 -78 -53 -92 0 -25 15 -13 38 30 27 51 112 140 210 222 68 56
101 78 261 171 65 38 195 87 264 99 l37 7 0 -51 c0 -28 -4 -51 -10 -51 -5 0
-10 -7 -10 -15 0 -9 -7 -18 -15 -21 -8 -4 -15 -15 -15 -25 0 -10 -4 -19 -9
-19 -4 0 -25 -16 -45 -35 -21 -19 -44 -35 -51 -35 -8 0 -19 -9 -25 -20 -6 -11
-18 -20 -26 -20 -11 0 -13 -6 -9 -19 3 -11 -1 -36 -9 -55 -12 -29 -13 -48 -5
-98 14 -89 18 -92 111 -84 82 7 197 32 212 46 5 5 15 6 22 3 15 -5 47 21 37
31 -4 3 6 6 21 6 25 0 28 3 24 25 -7 36 7 40 54 15 22 -11 42 -19 45 -17 2 3
-34 43 -80 89 -69 68 -93 101 -128 174 -43 87 -44 91 -47 204 -5 165 29 380
60 380 24 0 89 -48 97 -72 21 -59 140 -208 166 -208 7 0 15 -6 18 -12 6 -16
49 -38 165 -83 126 -48 198 -63 317 -67 l100 -3 3 293 2 292 -33 0 c-25 0 -54
-16 -120 -64 -67 -50 -100 -67 -145 -77 -71 -15 -94 -14 -157 9 l-50 18 0 180
c0 164 -2 183 -22 223 -20 41 -21 71 -2 71 5 0 25 16 45 35 32 32 41 35 92 35
146 -1 263 -100 323 -272 27 -79 45 -111 58 -103 4 2 8 96 9 209 l2 205 -33
19 c-74 46 -190 101 -200 95 -6 -3 -7 -1 -3 5 4 8 -4 16 -21 22 -15 6 -44 19
-64 29 -24 12 -41 16 -50 10 -8 -5 -50 -10 -94 -10 -151 0 -165 -2 -165 -19 0
-12 -2 -12 -9 -1 -15 24 -24 -8 -11 -40 20 -48 6 -43 -38 14 l-41 53 -3 164
c-2 163 -1 168 40 345 69 294 78 324 119 384 74 107 79 111 139 111 49 0 55
-3 64 -25 15 -38 35 -40 122 -12 57 19 85 24 102 17 23 -9 46 -54 46 -93 0
-34 -38 -84 -90 -117 -64 -41 -152 -47 -197 -14 -34 26 -82 93 -83 117 0 9 -4
17 -9 17 -19 0 -17 -37 6 -82 25 -52 29 -68 12 -51 -9 9 -16 8 -27 -3 -9 -9
-24 -13 -38 -10 -37 10 -38 -11 0 -62 24 -34 36 -61 37 -89 2 -31 8 -43 21
-46 10 -3 21 -1 24 4 3 5 10 7 15 4 5 -4 9 1 9 10 0 9 8 24 18 35 18 19 98 51
106 43 3 -3 -4 -28 -14 -56 -21 -55 -19 -67 9 -50 15 10 22 8 37 -8 12 -14 30
-19 67 -19 48 0 50 1 123 78 l75 77 -7 50 c-47 362 -294 651 -653 762 l-86 27
-420 3 c-231 2 -503 4 -605 6 -102 1 -691 0 -1310 -3z m1655 -515 c75 -19 141
-38 146 -41 6 -3 25 -8 42 -11 18 -2 36 -9 42 -14 5 -5 19 -9 31 -9 13 0 29
-6 37 -14 8 -9 24 -12 36 -9 14 4 21 1 21 -10 0 -8 13 -17 30 -21 17 -3 47
-17 68 -31 20 -14 43 -25 50 -25 9 0 12 -6 8 -15 -3 -10 -1 -15 7 -13 19 4 77
-44 77 -64 0 -10 6 -18 13 -18 21 0 100 -88 94 -105 -7 -15 -27 -21 -27 -7 0
4 6 14 13 21 10 10 9 12 -3 10 -19 -3 -82 25 -74 33 3 4 -8 16 -25 29 -28 21
-29 23 -13 36 15 12 15 13 -8 11 -14 -2 -24 -8 -23 -14 3 -16 -25 -13 -31 3
-3 7 1 13 10 13 8 0 12 5 9 10 -4 6 -11 7 -17 4 -7 -5 -9 -1 -5 9 7 18 -14 29
-34 17 -15 -10 -57 27 -51 44 2 5 -3 4 -11 -3 -12 -9 -16 -9 -20 1 -4 10 -8
10 -15 -1 -9 -12 -13 -12 -27 2 -9 10 -21 17 -26 17 -6 0 -8 4 -5 9 4 5 0 12
-6 14 -7 3 -4 6 7 7 16 1 14 4 -10 15 -16 8 -39 14 -49 15 -20 0 -20 0 0 -14
26 -19 10 -33 -20 -17 -13 7 -34 10 -47 7 -13 -3 -18 -3 -11 0 21 10 13 24
-15 25 -27 0 -27 1 -5 9 12 5 30 6 39 3 10 -4 14 -2 10 4 -4 6 -34 13 -68 16
-34 3 -65 10 -68 15 -3 5 -28 10 -56 10 -106 0 -117 1 -110 12 3 6 -3 10 -14
10 -12 0 -21 4 -21 9 0 5 -18 12 -40 16 -58 10 -50 26 17 34 7 0 73 -15 148
-34z m-85 -86 c19 -2 37 -6 40 -9 12 -14 94 -40 145 -46 31 -4 58 -11 61 -15
3 -5 18 -9 34 -9 16 0 31 -4 34 -9 3 -4 33 -14 66 -20 33 -7 60 -16 60 -22 0
-5 8 -9 19 -9 10 0 24 -7 31 -15 7 -9 15 -13 18 -10 3 2 12 -4 21 -14 9 -10
35 -28 57 -39 47 -24 154 -122 154 -140 0 -11 13 -16 33 -13 4 1 5 -9 2 -21
-3 -13 -13 -54 -22 -93 -11 -50 -17 -125 -19 -260 -2 -131 -7 -204 -17 -236
-13 -43 -85 -168 -97 -169 -8 0 -26 46 -63 165 -74 233 -145 394 -209 472 -18
22 -48 60 -67 84 -70 89 -176 183 -247 219 -38 19 -70 38 -72 42 -2 5 -10 8
-17 8 -8 0 -31 8 -50 17 -33 16 -36 21 -31 46 3 16 6 54 6 83 l0 54 48 -19
c26 -11 63 -21 82 -22z m1192 -209 c27 0 38 -4 36 -12 -3 -7 -9 -13 -14 -14
-5 0 -27 -5 -49 -12 -55 -15 -145 2 -145 28 0 5 14 4 30 -2 37 -12 73 -3 50
13 -11 8 -6 9 19 5 18 -3 51 -6 73 -6z m-2012 -530 c24 -7 23 -7 -10 -13 -19
-4 -75 -11 -124 -17 -96 -12 -375 -99 -468 -146 -103 -52 -279 -167 -389 -256
-107 -85 -111 -88 -106 -58 8 36 69 172 89 195 39 46 73 76 108 96 22 12 36
27 33 32 -3 6 -1 7 5 3 6 -3 26 3 45 14 55 32 193 80 307 105 171 38 452 63
510 45z m210 -74 c-12 -95 -41 -219 -80 -346 -28 -90 -33 -99 -92 -156 -112
-108 -156 -115 -78 -12 53 70 144 250 185 367 30 86 14 64 -55 -74 l-70 -140
-117 -55 c-145 -68 -270 -149 -390 -251 -51 -44 -94 -79 -96 -79 -13 0 -30 69
-28 112 2 37 -1 49 -11 46 -16 -6 -27 -58 -35 -156 -5 -72 -6 -73 -31 -70 -22
3 -28 10 -36 48 l-10 45 -6 -50 c-5 -48 -6 -50 -43 -58 -21 -5 -40 -7 -43 -4
-3 2 14 47 36 98 53 119 65 157 55 166 -4 5 -10 2 -13 -6 -6 -19 -59 -77 -65
-71 -10 12 -117 287 -117 301 0 21 16 34 130 110 103 68 273 155 360 184 30
10 64 22 75 26 75 32 489 80 530 61 21 -10 25 -8 34 20 18 50 22 28 11 -56z
m-1220 4 c0 -5 -9 -15 -19 -22 -10 -6 -17 -17 -14 -24 2 -7 0 -22 -6 -33 -11
-19 -12 -19 -41 -3 -16 9 -30 20 -30 23 0 13 70 60 80 54 6 -3 10 -1 10 4 0 6
5 11 10 11 6 0 10 -4 10 -10z m2638 -173 c13 -20 22 -48 22 -72 0 -22 7 -46
17 -57 14 -16 15 -21 3 -28 -10 -6 -4 -19 28 -55 49 -55 79 -114 88 -172 8
-51 -3 -55 -34 -13 -50 67 -171 92 -239 50 -43 -26 -45 -55 -3 -47 16 4 32 2
36 -4 3 -6 12 -8 20 -5 8 3 14 2 14 -2 0 -4 11 -8 24 -8 34 -2 23 24 -12 29
-15 3 -7 3 18 1 62 -4 95 -20 124 -63 75 -110 48 -310 -42 -319 -55 -6 -65 11
-58 98 3 41 9 94 12 118 5 36 2 47 -16 67 -34 36 -57 37 -80 6 -44 -62 -58
-145 -35 -203 11 -27 -16 -22 -62 11 -22 16 -43 41 -47 55 -3 14 -11 26 -17
26 -5 0 -19 20 -30 45 -17 38 -18 53 -10 102 19 123 39 169 86 208 50 40 142
181 151 232 3 18 9 33 13 33 3 0 16 -15 29 -33z m-3223 -319 c47 -144 73 -204
106 -247 22 -27 26 -73 6 -66 -9 4 -11 -6 -9 -39 3 -38 7 -43 27 -43 22 0 24
4 29 76 4 42 11 90 16 107 6 17 10 39 10 50 1 56 71 193 109 214 45 23 114 3
80 -24 -90 -70 -181 -309 -166 -436 9 -71 43 -125 72 -114 14 6 13 10 -7 31
-19 21 -24 38 -26 106 -5 98 16 188 60 267 43 76 62 99 103 121 45 24 45 24
45 -11 0 -23 7 -32 35 -46 19 -9 35 -19 35 -23 0 -3 29 -40 65 -80 70 -80 83
-121 45 -141 -31 -17 -50 -64 -50 -124 0 -48 3 -58 25 -72 31 -20 56 -12 94
32 23 26 31 44 31 74 0 21 5 42 10 45 6 3 10 -3 10 -14 0 -20 4 -21 108 -16
62 3 113 1 122 -5 13 -9 13 -10 0 -11 -100 -5 -128 -8 -147 -16 -16 -6 -4 -8
41 -9 43 0 77 -7 106 -22 39 -19 45 -20 71 -6 16 8 29 20 30 27 1 21 18 -27
18 -54 1 -15 8 -30 17 -33 30 -11 37 -6 19 14 -25 27 -15 105 22 171 27 49 32
53 139 100 72 31 126 49 155 50 35 1 216 -14 255 -22 20 -3 35 2 29 10 -3 5 4
12 14 16 14 4 18 12 14 23 -5 13 0 12 19 -5 13 -13 30 -23 36 -23 17 0 39 -48
51 -115 20 -105 9 -172 -34 -224 -14 -16 -25 -32 -25 -35 0 -14 24 -4 45 19
36 38 48 88 42 179 -6 98 -10 117 -37 169 -12 21 -19 42 -16 44 8 8 120 -19
141 -33 11 -8 26 -14 34 -14 7 0 20 -8 27 -17 7 -10 15 -16 17 -13 3 3 12 46
20 95 13 78 14 91 1 98 -8 5 -12 12 -9 17 3 5 1 11 -4 14 -5 4 -17 -16 -26
-44 -9 -27 -19 -50 -22 -50 -6 0 0 29 20 92 12 39 13 49 2 58 -11 9 -17 -2
-31 -51 -23 -83 -31 -58 -9 31 16 66 19 70 75 109 32 23 63 41 68 41 30 0 21
-246 -14 -400 -18 -78 -55 -201 -65 -215 -4 -5 -20 -35 -37 -65 -16 -30 -38
-69 -48 -87 -15 -25 -16 -35 -7 -44 14 -14 103 8 191 47 29 13 49 18 46 11 -4
-7 -25 -38 -46 -69 -60 -89 -54 -98 68 -98 61 0 74 -3 74 -16 0 -9 50 32 117
95 139 132 197 166 273 159 89 -9 121 -61 121 -193 1 -46 -4 -91 -9 -102 -6
-10 -27 -24 -49 -32 -21 -7 -59 -26 -86 -42 -64 -39 -73 -38 -69 11 3 25 0 40
-7 40 -6 0 -11 7 -11 15 0 8 -4 15 -10 15 -5 0 -10 6 -10 14 0 8 -10 14 -25
14 -14 0 -25 -5 -25 -11 0 -6 -2 -8 -5 -5 -3 3 0 18 7 33 11 24 16 26 47 21
51 -8 121 4 121 21 0 8 5 11 12 7 6 -4 17 2 25 12 14 19 15 19 30 -1 14 -19
15 -17 10 29 -5 53 -34 90 -77 101 -48 12 -136 -75 -245 -242 -32 -49 -30 -91
8 -132 l22 -24 -24 6 c-47 12 -130 -43 -151 -99 -7 -18 -17 -21 -102 -23 -169
-4 -209 -23 -318 -149 -50 -58 -155 -212 -180 -264 -10 -22 -9 -21 9 2 11 14
54 70 94 125 92 124 161 202 196 219 33 17 111 31 111 19 0 -4 -31 -23 -69
-41 -84 -41 -96 -53 -160 -172 -129 -240 -211 -449 -211 -539 0 -55 -34 -251
-48 -277 -6 -11 -22 -98 -36 -194 -15 -96 -29 -184 -33 -195 -3 -11 -21 -90
-38 -175 -31 -147 -71 -269 -88 -270 -9 0 -1 118 19 285 8 66 24 196 34 288
48 405 70 520 133 688 13 35 27 78 30 94 l7 30 -14 -26 c-8 -14 -25 -54 -37
-90 -12 -35 -29 -71 -38 -81 -50 -50 -320 -154 -426 -163 -65 -5 -321 33 -420
63 -70 22 -195 77 -265 116 -238 136 -229 130 -342 236 -90 84 -160 183 -189
265 -32 92 -21 277 24 385 50 118 95 370 98 541 l1 106 -36 51 c-62 86 -96
212 -96 359 0 108 12 122 27 30 6 -43 33 -142 58 -219z m545 -4 c0 -6 -7 -11
-15 -11 -15 0 -21 28 -8 40 7 8 23 -12 23 -29z m2620 -219 c-6 -15 -9 -30 -6
-32 2 -2 9 12 16 32 14 42 36 41 33 -1 -5 -89 -19 -178 -30 -181 -16 -6 -53
68 -53 104 0 15 9 48 20 72 22 47 38 52 20 6z m-996 -62 c-3 -27 -15 -83 -26
-125 -17 -65 -26 -83 -60 -114 -22 -19 -42 -34 -44 -31 -3 2 18 51 46 107 27
57 58 127 67 157 9 29 18 53 20 53 1 0 0 -21 -3 -47z m-1509 -43 c7 -12 -12
-40 -26 -40 -10 0 -12 34 -2 43 9 10 21 9 28 -3z m-1313 -166 c137 -78 356
-233 443 -315 22 -21 55 -51 73 -67 24 -22 33 -38 34 -64 2 -67 -10 -63 -100
33 -118 125 -304 277 -476 390 -80 52 -145 97 -145 101 -1 9 94 -35 171 -78z
m654 19 c-7 -64 -12 -101 -26 -182 -6 -30 -10 -71 -10 -91 0 -40 -27 -103 -40
-95 -13 8 -30 100 -30 163 0 67 17 134 36 145 8 4 26 32 41 62 14 30 28 55 31
55 3 0 2 -26 -2 -57z m679 17 c-19 -21 -55 -27 -55 -10 0 6 9 10 19 10 11 0
23 5 26 10 3 6 11 10 17 10 6 0 3 -9 -7 -20z m-1297 -123 c11 -8 10 -12 -3
-20 -12 -6 -22 -4 -34 8 -15 16 -15 17 9 5 23 -12 24 -12 11 3 -7 10 -26 17
-42 17 -17 0 -28 5 -26 12 1 7 -8 17 -20 23 -13 5 -23 13 -23 18 0 8 102 -44
128 -66z m3183 -239 c1 -13 2 -35 3 -49 1 -19 5 -25 16 -21 8 3 -1 -8 -21 -26
-32 -28 -59 -41 -59 -28 0 2 12 24 26 50 18 32 24 54 20 71 -4 14 -2 25 4 25
5 0 11 -10 11 -22z m-3338 -118 c-3 -11 -9 -20 -14 -20 -5 0 -9 -16 -9 -36 0
-21 -4 -33 -10 -29 -5 3 -11 -2 -11 -12 -2 -26 -16 36 -18 75 -1 29 1 32 23
26 13 -3 27 -1 30 5 11 17 15 13 9 -9z m3233 -22 c12 -19 -70 -88 -105 -88
-16 0 -32 4 -35 9 -9 13 25 68 49 80 28 14 82 13 91 -1z m-3296 -190 c0 -13
-5 -30 -10 -38 -7 -11 -10 -5 -10 23 0 20 5 37 10 37 6 0 10 -10 10 -22z m576
-633 c30 -30 38 -32 24 -5 -6 11 -7 20 -3 20 5 0 34 -9 66 -20 31 -11 64 -20
74 -20 19 0 151 -65 172 -86 13 -12 6 -22 -52 -75 -37 -34 -67 -66 -67 -70 0
-22 29 -4 87 53 38 37 66 58 71 53 9 -11 42 -126 42 -148 0 -11 -105 -104
-146 -130 -8 -4 -32 9 -63 35 -112 97 -139 116 -189 142 -122 62 -140 54 -28
-12 40 -24 113 -81 162 -126 l89 -84 -18 -34 c-28 -52 -87 -118 -107 -118 -19
0 -142 61 -248 123 -35 20 -66 37 -68 37 -24 0 69 -71 192 -146 101 -62 104
-65 104 -100 0 -39 -22 -99 -47 -126 -9 -10 -29 -18 -44 -18 l-28 0 24 53 c14
29 25 69 24 92 -1 43 -2 41 -19 -22 -10 -39 -53 -103 -68 -103 -4 0 -45 23
-92 50 -87 53 -130 69 -130 52 0 -6 13 -18 29 -29 15 -10 60 -40 99 -67 65
-44 70 -50 62 -72 -5 -13 -7 -24 -4 -24 2 0 -1 -10 -8 -22 -7 -13 -11 -26 -10
-30 3 -13 -69 -9 -123 6 -91 24 -123 51 -67 58 41 5 35 33 -8 35 -19 1 -40 2
-46 2 -23 2 -37 59 -29 119 5 31 8 85 7 120 l-1 63 35 -45 c34 -45 64 -60 64
-32 0 19 -76 96 -95 96 -11 0 -15 11 -15 39 0 29 11 55 42 101 38 57 42 71 48
141 6 92 28 129 84 143 31 8 38 16 48 49 16 53 78 102 136 106 7 1 24 -10 38
-24z m3714 -105 c0 -5 -6 -10 -12 -11 -10 0 -10 -2 -1 -5 8 -4 9 -13 4 -27 -5
-12 -12 -49 -16 -82 -4 -33 -13 -72 -21 -87 -8 -15 -14 -40 -14 -57 0 -16 -4
-33 -10 -36 -5 -3 -10 -14 -10 -23 0 -9 -7 -30 -15 -46 -8 -15 -15 -35 -15
-42 0 -8 -10 -14 -25 -14 -18 0 -23 4 -19 15 7 18 24 20 25 3 0 -7 6 5 13 27
8 28 9 52 3 78 -9 35 -27 52 -27 24 0 -18 -24 -67 -32 -67 -5 0 -8 -11 -8 -24
0 -14 -4 -28 -10 -31 -5 -3 -10 -13 -10 -22 0 -8 -10 -29 -22 -46 -13 -18 -23
-41 -23 -52 0 -11 -6 -19 -13 -17 -19 3 -52 -17 -52 -32 0 -19 -37 -49 -51
-40 -9 5 -10 -1 -5 -22 4 -19 3 -24 -3 -15 -7 11 -11 10 -20 -5 -9 -16 -10
-16 -11 -3 0 14 -73 75 -129 109 -17 10 -16 11 49 125 22 39 43 76 46 83 3 6
-3 32 -15 57 -12 25 -21 49 -21 54 0 5 23 16 52 26 56 18 177 77 218 105 14 9
57 34 95 55 39 21 74 42 80 46 12 12 25 11 25 -1z m-2291 -107 c17 -21 31 -42
31 -47 0 -5 7 -17 16 -27 14 -15 13 -22 -4 -75 -10 -32 -23 -59 -29 -61 -6 -2
-18 28 -26 66 -9 39 -28 93 -42 120 -31 61 -31 61 -1 61 16 0 35 -13 55 -37z
m-272 -75 c-30 -51 -60 -103 -66 -115 -19 -37 -33 -26 -17 12 8 19 14 35 12
35 -4 0 -124 -162 -174 -235 -38 -56 -41 -66 -47 -150 -13 -157 -33 -133 -34
40 l-1 110 73 90 c39 50 103 119 141 155 38 36 89 86 114 113 25 26 47 45 50
42 2 -2 -20 -46 -51 -97z m506 56 c-3 -8 -25 -50 -49 -92 -24 -42 -44 -81 -44
-86 0 -5 -11 -32 -24 -60 -13 -28 -49 -114 -79 -192 -57 -146 -93 -224 -103
-224 -4 0 -4 31 0 69 12 116 -15 196 -29 90 -4 -28 -13 -62 -20 -75 -11 -22
-13 -23 -27 -6 -9 9 -28 42 -44 72 -24 46 -28 68 -29 130 0 63 4 80 23 108 30
41 54 41 88 -3 16 -22 35 -35 49 -35 28 0 95 73 155 170 45 73 112 150 130
150 5 0 7 -7 3 -16z m467 -51 c14 -10 33 -28 43 -40 51 -63 117 -130 167 -166
30 -23 61 -47 68 -54 82 -80 273 -173 358 -173 19 0 65 17 109 41 53 28 86 39
108 37 101 -10 -31 -136 -160 -154 -54 -7 -225 30 -301 64 -32 15 -188 123
-202 141 -3 4 -18 17 -35 30 -125 95 -233 250 -198 284 10 10 16 9 43 -10z
m-1638 -20 c29 -35 58 -95 58 -120 0 -16 -18 -51 -47 -87 -64 -84 -63 -83 -57
-44 6 31 2 38 -34 66 -22 18 -44 32 -50 32 -6 0 -22 -14 -36 -31 -34 -39 -35
-91 -4 -113 12 -9 17 -16 11 -16 -6 0 -25 14 -43 30 -29 27 -31 34 -26 68 6
29 21 49 70 94 34 31 75 75 90 97 32 45 45 50 68 24z m1508 -49 c0 -57 193
-354 253 -389 17 -10 47 -32 66 -50 20 -17 68 -52 106 -77 79 -50 128 -92 131
-112 1 -8 5 -24 9 -37 7 -23 7 -23 -12 -7 -26 24 -35 23 -28 -5 5 -19 0 -25
-28 -35 -46 -17 -57 -15 -57 9 0 11 -4 17 -10 14 -5 -3 -10 2 -10 13 0 10 -19
53 -41 95 -68 124 -151 169 -279 147 -59 -10 -73 -17 -113 -56 -44 -43 -75
-61 -45 -26 9 9 19 28 23 41 6 20 4 23 -9 18 -9 -4 -16 -2 -16 4 0 5 14 15 30
20 30 11 38 23 21 33 -5 3 -11 19 -13 35 -3 18 0 27 5 24 11 -7 1 121 -14 178
-9 37 -6 160 6 179 8 14 25 3 25 -16z m-646 -32 c8 -14 -5 -52 -18 -52 -7 0
-17 5 -24 12 -9 9 -8 16 5 30 18 20 29 23 37 10z m-944 -159 c0 -16 -38 -36
-56 -29 -17 6 -19 47 -3 63 9 9 18 8 35 -5 13 -9 24 -22 24 -29z m3156 -24 c4
-7 0 -16 -9 -21 -9 -5 -14 -15 -11 -22 9 -24 -14 -56 -39 -53 -15 1 -21 -3
-19 -14 1 -9 -4 -19 -13 -23 -8 -3 -15 -12 -15 -20 0 -7 -6 -16 -14 -19 -10
-4 -12 0 -8 16 3 12 8 24 11 27 20 17 53 60 55 71 12 57 44 87 62 58z m-3297
-61 l42 -42 -35 -35 -35 -35 -23 20 c-24 22 -57 38 -71 35 -5 -1 10 21 34 49
23 27 43 50 44 50 2 0 21 -19 44 -42z m-82 -126 c38 -90 -81 -255 -199 -276
-44 -8 -50 5 -10 20 18 7 35 26 47 50 10 21 24 42 31 47 26 15 75 116 81 166
5 44 8 49 21 39 8 -7 21 -28 29 -46z m3203 -26 c0 -16 -14 -36 -25 -36 -7 0
-15 -10 -18 -22 -4 -12 -9 -19 -13 -15 -3 3 -3 14 1 24 9 21 12 29 14 43 1 9
41 15 41 6z m-3398 -123 c16 -5 16 -8 2 -35 -8 -16 -26 -33 -40 -38 -35 -13
-35 -13 -19 16 7 14 11 38 9 51 -4 21 -2 24 13 18 10 -4 26 -9 35 -12z m2168
-78 c-12 -13 -28 -22 -33 -18 -6 3 2 16 18 29 37 29 46 22 15 -11z m6 -63
c-17 -17 -26 -22 -26 -12 0 19 44 64 48 50 3 -7 -7 -24 -22 -38z m-76 -64 c0
-14 -30 -48 -42 -48 -13 0 -9 22 9 42 18 21 33 23 33 6z m150 -17 c0 -12 -50
-44 -58 -37 -8 9 39 56 49 50 5 -3 9 -9 9 -13z m10 -49 c0 -14 -39 -46 -47
-39 -3 4 2 16 12 27 19 21 35 26 35 12z m-130 -49 c-1 -15 -39 -58 -45 -51 -8
8 24 58 36 58 5 0 9 -3 9 -7z"/>
<path d="M2743 2795 c-47 -20 -87 -95 -88 -163 0 -48 3 -57 33 -83 36 -33 73
-37 127 -15 42 18 62 48 70 109 10 66 -9 129 -45 150 -34 20 -55 21 -97 2z
m33 -50 c8 -20 -13 -45 -32 -38 -17 6 -18 25 -2 41 16 16 27 15 34 -3z m68
-160 c-8 -20 -36 -35 -66 -35 -20 0 -17 4 17 25 47 29 57 31 49 10z"/>
<path d="M1351 2546 c-10 -11 -8 -16 6 -20 33 -11 99 -9 119 2 18 11 18 11 -3
12 -13 0 -23 5 -23 10 0 16 -86 12 -99 -4z"/>
<path d="M1790 2487 c-76 -37 -89 -87 -33 -124 18 -12 23 -12 37 2 9 9 16 32
16 51 0 19 7 46 16 60 9 13 15 26 13 28 -2 3 -24 -5 -49 -17z"/>
<path d="M2545 2490 c-39 -5 -26 -7 55 -7 67 0 94 2 75 7 -36 9 -63 9 -130 0z"/>
<path d="M2710 2450 c-32 -5 -12 -7 70 -8 72 0 108 3 95 8 -23 10 -101 10
-165 0z"/>
<path d="M1375 2398 c-28 -17 -61 -38 -73 -45 -13 -8 -22 -17 -19 -20 3 -2 36
15 74 38 82 51 77 48 72 53 -3 3 -27 -9 -54 -26z"/>
<path d="M1250 2396 c-47 -25 -102 -76 -82 -76 11 0 120 69 147 92 19 17 -21
7 -65 -16z"/>
<path d="M2850 2400 l-55 -7 60 -1 c33 -1 85 -4 115 -7 l55 -5 -50 15 c-27 8
-54 14 -60 13 -5 -1 -35 -4 -65 -8z"/>
<path d="M2210 2337 c0 -5 -12 -6 -27 -3 -19 4 -23 3 -14 -3 10 -6 -2 -13 -40
-26 -30 -9 -82 -28 -115 -41 -76 -29 -297 -84 -340 -84 -26 0 -39 -8 -63 -39
-29 -36 -31 -45 -31 -119 0 -141 36 -311 98 -467 46 -117 51 -124 117 -164 63
-38 47 -39 295 13 406 87 410 88 462 143 42 44 61 99 60 179 -2 142 -31 258
-104 417 -32 69 -52 96 -92 130 -28 24 -57 47 -65 52 -21 12 -141 23 -141 12z
m140 -43 c71 -48 162 -168 142 -188 -3 -4 0 -11 8 -16 12 -8 11 -10 -5 -11
-17 -1 -16 -2 5 -9 22 -7 21 -8 -12 -9 -40 -1 -49 11 -20 28 16 10 15 11 -3 9
-45 -3 -55 2 -52 25 2 20 -3 22 -48 25 -72 5 -266 -15 -365 -36 -88 -20 -211
-70 -225 -92 -5 -9 -2 -10 13 -6 35 12 35 -22 -1 -54 -41 -38 -70 -40 -61 -5
7 29 -4 32 -55 14 -47 -16 -71 8 -71 72 0 39 6 55 28 79 23 27 37 32 101 41
85 10 180 35 301 80 194 71 273 84 320 53z m-510 -343 c0 -21 -6 -32 -21 -36
-29 -10 -33 -1 -14 34 20 39 35 40 35 2z m593 -137 l38 -7 -29 -17 c-25 -15
-28 -23 -24 -51 2 -19 1 -31 -3 -27 -4 4 -20 -1 -35 -12 -16 -11 -38 -20 -50
-20 -12 0 -31 -5 -42 -11 -24 -13 -107 -14 -120 -1 -9 9 26 52 42 52 5 0 7 7
4 15 -6 13 6 20 29 16 4 0 7 3 7 9 0 14 92 54 135 59 6 0 27 -2 48 -5z m164
-110 c-4 -40 -15 -82 -29 -107 -38 -69 -88 -88 -368 -145 -342 -70 -339 -69
-393 -38 -73 43 -80 55 -62 105 34 97 81 151 130 151 23 0 18 -27 -7 -34 l-23
-6 23 -15 c12 -9 22 -22 22 -29 0 -7 9 -21 20 -31 19 -17 29 -17 153 -6 155
15 218 30 339 78 66 26 100 47 133 81 25 25 45 49 45 54 0 4 5 8 11 8 9 0 10
-19 6 -66z m-521 31 c-3 -8 -1 -15 4 -15 17 0 40 -45 34 -66 -8 -30 -102 -60
-152 -48 -57 14 -55 44 5 85 26 18 51 37 54 41 3 5 14 6 24 2 13 -5 16 -4 11
4 -4 7 -1 12 9 12 11 0 15 -5 11 -15z"/>
<path d="M693 1203 c-53 -7 -38 -23 21 -23 58 0 86 7 86 21 0 9 -44 10 -107 2z"/>
<path d="M1041 1116 c-35 -35 -61 -70 -59 -77 5 -14 138 114 138 132 0 19 -18
7 -79 -55z"/>
<path d="M619 1088 c22 -36 41 -47 41 -26 0 15 -40 58 -54 58 -4 0 1 -15 13
-32z"/>
<path d="M534 966 c-17 -13 -17 -15 -2 -21 18 -7 58 10 58 25 0 15 -33 12 -56
-4z"/>
<path d="M910 794 c-54 -82 -55 -84 -38 -84 17 0 91 115 86 135 -2 10 -20 -9
-48 -51z"/>
<path d="M501 837 c-1 -25 38 -99 49 -92 10 6 -6 48 -32 86 -14 20 -17 21 -17
6z"/>
<path d="M460 551 c0 -25 42 -75 58 -70 7 3 1 19 -16 46 -29 47 -42 54 -42 24z"/>
<path d="M4455 1148 c-16 -16 -17 -20 -5 -28 12 -8 12 -10 -3 -16 -9 -3 -14
-10 -11 -15 3 -5 1 -9 -5 -9 -6 0 -8 -7 -5 -15 3 -8 -2 -37 -11 -65 -16 -48
-14 -110 4 -110 4 0 14 25 21 55 8 34 19 55 27 55 10 0 14 14 12 53 -1 28 3
64 9 79 14 34 -5 43 -33 16z"/>
<path d="M1240 921 c0 -7 53 -45 83 -59 22 -11 -10 31 -38 48 -36 22 -45 24
-45 11z"/>
<path d="M4339 3952 c13 -25 57 -57 105 -77 32 -14 44 -14 108 0 80 16 133 54
110 77 -9 9 -16 8 -29 -4 -26 -22 -80 -38 -128 -38 -37 0 -63 9 -168 58 -5 3
-4 -5 2 -16z"/>
<path d="M4900 3920 c0 -47 19 -96 49 -127 48 -50 56 -13 12 51 -16 23 -33 59
-36 79 -10 49 -25 47 -25 -3z"/>
<path d="M4768 3771 c-27 -9 -48 -21 -48 -28 0 -8 -12 -10 -36 -6 -50 8 -196
-16 -225 -37 -19 -15 -21 -21 -11 -33 7 -8 9 -23 5 -32 -5 -14 -3 -17 10 -12
9 3 17 2 17 -3 0 -6 -5 -10 -11 -10 -8 0 -7 -5 2 -16 11 -13 9 -14 -12 -9 -17
4 -30 1 -38 -9 -17 -21 -14 -22 184 -51 44 -7 164 -43 180 -55 6 -4 21 -11 35
-15 14 -4 56 -23 94 -41 38 -19 71 -34 73 -34 1 0 3 49 3 108 0 123 6 110
-110 231 l-65 68 -47 -16z"/>
<path d="M640 2242 c0 -20 6 -35 15 -39 23 -8 23 -2 3 37 l-18 35 0 -33z"/>
<path d="M577 2198 c-7 -4 -10 -8 -7 -8 3 0 20 -4 38 -9 28 -8 32 -7 32 10 0
14 -6 18 -26 17 -14 -1 -30 -6 -37 -10z"/>
<path d="M3189 1763 c-30 -38 -41 -65 -30 -76 7 -7 14 -1 22 19 6 16 15 39 20
52 10 27 7 28 -12 5z"/>
<path d="M3076 45 c-9 -24 1 -35 30 -35 21 0 25 4 22 23 -4 27 -42 36 -52 12z"/>
</g>
</svg>
